<svg xmlns="http://www.w3.org/2000/svg" width="81" height="80" viewBox="0 0 81 80" fill="none"><path d="M80.3646 39.6656C80.3646 41.9197 76.2008 43.7981 75.8252 45.927C75.4495 48.1498 78.7054 51.3117 77.954 53.378C77.2027 55.4755 72.6319 55.7886 71.5361 57.6983C70.4091 59.6393 72.4127 63.7405 71.0039 65.4311C69.5638 67.1217 65.1809 65.8694 63.4903 67.3095C61.7997 68.7183 62.2693 73.2891 60.3283 74.3848C58.4186 75.4806 54.7244 72.8195 52.6269 73.5708C50.5606 74.3222 49.4336 78.7678 47.2421 79.1434C45.0819 79.5191 42.5461 75.731 40.2607 75.731C38.0066 75.731 35.4394 79.5191 33.2793 79.1434C31.0565 78.7678 29.9608 74.3222 27.8945 73.5708C25.797 72.8195 22.1028 75.4806 20.1931 74.3848C18.252 73.2578 18.7529 68.7183 17.0311 67.3095C15.3405 65.8694 10.9263 67.1217 9.51746 65.4311C8.10865 63.7405 10.081 59.608 8.98524 57.6983C7.88951 55.7886 3.31872 55.4755 2.56736 53.378C1.816 51.3117 5.10321 48.1498 4.69622 45.927C4.32054 43.7668 0.156738 41.9197 0.156738 39.6656C0.156738 37.4115 4.32054 35.5331 4.69622 33.4043C5.0719 31.1815 1.816 28.0195 2.56736 25.9533C3.28741 23.8244 7.8582 23.5114 8.95394 21.6016C10.081 19.6606 8.07735 15.5594 9.48615 13.8689C10.9263 12.1783 15.3092 13.4306 16.9998 11.9905C18.6903 10.5817 18.2207 6.01088 20.1618 4.91514C22.0715 3.8194 25.7657 6.48048 27.8632 5.72912C29.9295 4.97775 31.0565 0.532195 33.248 0.156514C35.4081 -0.219167 37.944 3.56895 40.2294 3.56895C42.4835 3.56895 45.0506 -0.219167 47.2108 0.156514C49.4336 0.532195 50.5293 4.97775 52.5956 5.72912C54.6931 6.48048 58.3873 3.8194 60.297 4.91514C62.238 6.04218 61.7371 10.5817 63.459 11.9905C65.1496 13.4306 69.5638 12.1783 70.9726 13.8689C72.3814 15.5594 70.4091 19.6919 71.5048 21.6016C72.6006 23.5114 77.1714 23.8244 77.9227 25.922C78.6741 27.9882 75.3869 31.1502 75.7939 33.373C76.2008 35.5331 80.3646 37.4115 80.3646 39.6656Z" fill="#262262"></path><path d="M46.8975 79.3C45.8331 79.3 44.6747 78.4234 43.579 77.5781C42.452 76.7328 41.2936 75.8563 40.2292 75.8563C39.1647 75.8563 38.0064 76.7328 36.8794 77.5781C35.7523 78.4234 34.6253 79.3 33.5608 79.3C33.4669 79.3 33.3417 79.3 33.2478 79.2687C32.0581 79.0496 31.1815 77.7034 30.3049 76.3885C29.5536 75.2301 28.8022 74.0405 27.8317 73.6961C27.5812 73.6022 27.2995 73.5709 26.9864 73.5709C26.1411 73.5709 25.1393 73.8839 24.1688 74.1657C23.1983 74.4788 22.1652 74.7605 21.3199 74.7605C20.8503 74.7605 20.4433 74.6666 20.1302 74.4788C19.0971 73.8839 18.7214 72.3186 18.3771 70.7846C18.064 69.4384 17.7509 68.0296 16.9683 67.3721C16.1856 66.7147 14.7455 66.6208 13.368 66.5582C11.8026 66.4642 10.206 66.4016 9.42333 65.4937C8.67197 64.5858 8.85981 62.9892 9.04765 61.4552C9.20419 60.0777 9.39203 58.6375 8.85981 57.761C8.3589 56.8844 7.04402 56.3209 5.76044 55.7886C4.32033 55.1938 2.81761 54.5364 2.41062 53.4093C2.00363 52.3136 2.72369 50.8735 3.44374 49.496C4.06988 48.2437 4.72732 46.9601 4.57079 45.927C4.38295 44.9252 3.34982 43.986 2.34801 43.0468C1.18966 41.9824 0 40.8553 0 39.6343C0 38.4134 1.18966 37.2863 2.34801 36.2219C3.34982 35.2827 4.38295 34.3435 4.57079 33.3417C4.75863 32.3086 4.10118 31.025 3.44374 29.7727C2.75499 28.3952 2.00363 26.9864 2.41062 25.8594C2.84891 24.7636 4.35164 24.1375 5.79175 23.5427C7.07533 23.0105 8.3589 22.4469 8.89112 21.5704C9.42333 20.6625 9.23549 19.2537 9.07896 17.8762C8.85981 16.3108 8.67197 14.7455 9.42333 13.8063C10.206 12.8984 11.8026 12.8045 13.368 12.7418C14.7455 12.6792 16.1856 12.5853 16.9683 11.9279C17.7509 11.2704 18.064 9.86163 18.3771 8.51544C18.7214 6.98141 19.0971 5.41607 20.1302 4.82124C20.4433 4.6334 20.8503 4.53948 21.3199 4.53948C22.1652 4.53948 23.1983 4.85255 24.1688 5.13431C25.1393 5.44737 26.1411 5.72914 26.9864 5.72914C27.2995 5.72914 27.5812 5.69783 27.8317 5.60391C28.7709 5.25953 29.5536 4.06988 30.3049 2.91153C31.1502 1.59664 32.0268 0.219147 33.2478 0.0313068C33.3417 0 33.4669 0 33.5608 0C34.6253 0 35.7836 0.876589 36.8794 1.72187C38.0064 2.56715 39.1647 3.44374 40.2292 3.44374C41.2936 3.44374 42.452 2.56715 43.579 1.72187C44.706 0.876589 45.8331 0 46.8975 0C46.9914 0 47.1167 0 47.2106 0.0313068C48.4002 0.250454 49.2768 1.59664 50.1534 2.91153C50.9048 4.06988 51.6561 5.25953 52.6267 5.60391C52.8771 5.69783 53.1589 5.72914 53.4719 5.72914C54.3172 5.72914 55.319 5.41607 56.2895 5.13431C57.2601 4.82124 58.2932 4.53948 59.1385 4.53948C59.6081 4.53948 60.015 4.6334 60.3281 4.82124C61.3612 5.41607 61.7369 6.98141 62.0813 8.51544C62.3944 9.86163 62.7074 11.2704 63.4901 11.9279C64.2728 12.5853 65.7129 12.6792 67.0904 12.7418C68.6557 12.8358 70.2524 12.8984 71.035 13.8063C71.7864 14.7142 71.5985 16.3108 71.4107 17.8448C71.2542 19.2223 71.0663 20.6625 71.5985 21.539C72.0995 22.4156 73.4143 22.9792 74.6979 23.5114C76.138 24.1062 77.6407 24.7636 78.0477 25.8907C78.4547 26.9864 77.7347 28.4265 77.0146 29.804C76.3885 31.0563 75.731 32.3399 75.8876 33.373C76.0754 34.3748 77.1085 35.314 78.1103 36.2532C79.2687 37.3176 80.4584 38.4447 80.4584 39.6657C80.4584 40.8866 79.2687 42.0137 78.1103 43.0781C77.1085 44.0173 76.0754 44.9565 75.8876 45.9583C75.6997 46.9914 76.3572 48.275 77.0146 49.5273C77.7034 50.9048 78.4547 52.3136 78.0477 53.4406C77.6407 54.5677 76.138 55.1938 74.6979 55.8199C73.4143 56.3522 72.1308 56.9157 71.5985 57.7923C71.0663 58.7002 71.2542 60.109 71.4107 61.4865C71.5985 63.0205 71.7864 64.6171 71.035 65.525C70.2524 66.4329 68.6557 66.5269 67.0904 66.5895C65.7129 66.6521 64.2728 66.746 63.4901 67.4034C62.7074 68.0609 62.3944 69.4697 62.0813 70.8159C61.7369 72.3499 61.3612 73.9152 60.3281 74.5101C60.015 74.6979 59.6081 74.7918 59.1385 74.7918C58.2932 74.7918 57.2601 74.4788 56.2895 74.197C55.319 73.8839 54.3172 73.6022 53.4719 73.6022C53.1589 73.6022 52.8771 73.6335 52.6267 73.7274C51.6875 74.0718 50.9048 75.2614 50.1534 76.4198C49.3081 77.7347 48.4315 79.1122 47.2106 79.3C47.1167 79.3 47.0227 79.3 46.8975 79.3ZM40.2292 75.6997C41.3249 75.6997 42.5146 76.5763 43.6729 77.4529C44.7687 78.2669 45.8957 79.1435 46.8975 79.1435C46.9914 79.1435 47.0854 79.1435 47.1793 79.1122C48.3063 78.9243 49.1829 77.5781 49.9969 76.2946C50.7482 75.1362 51.5309 73.9152 52.5327 73.5396C52.8145 73.4456 53.0963 73.383 53.4406 73.383C54.3172 73.383 55.319 73.6961 56.3209 74.0092C57.2914 74.2909 58.2932 74.604 59.1385 74.604C59.5768 74.604 59.9524 74.5101 60.2655 74.3535C61.236 73.79 61.6117 72.256 61.9248 70.7533C62.2378 69.3758 62.5509 67.967 63.3962 67.2782C64.2102 66.5895 65.6816 66.4955 67.0904 66.4329C68.6244 66.3703 70.1897 66.2764 70.9098 65.3998C71.6299 64.5232 71.442 62.9892 71.2542 61.4552C71.0663 60.0464 70.9098 58.6062 71.442 57.667C71.9742 56.7278 73.3204 56.1643 74.604 55.6321C76.0128 55.0373 77.4842 54.4111 77.8599 53.3467C78.2356 52.3136 77.5155 50.9048 76.8268 49.5586C76.1693 48.3063 75.5119 46.9914 75.6997 45.8957C75.8876 44.8626 76.9207 43.8608 77.9538 42.9216C79.0809 41.8571 80.2392 40.7927 80.2392 39.6343C80.2392 38.476 79.0809 37.3803 77.9538 36.3471C76.9207 35.4079 75.8876 34.4061 75.6997 33.373C75.5119 32.2773 76.1693 30.9937 76.8268 29.7101C77.5155 28.3639 78.2356 26.9864 77.8599 25.922C77.4842 24.8576 76.0128 24.2314 74.604 23.6366C73.3204 23.1044 71.9742 22.5409 71.442 21.6017C70.9098 20.6625 71.0663 19.2223 71.2542 17.8135C71.442 16.3108 71.6299 14.7455 70.9098 13.8689C70.1897 12.9923 68.6244 12.9297 67.0904 12.8358C65.6816 12.7732 64.2102 12.6792 63.3962 11.9905C62.5822 11.3017 62.2378 9.89293 61.9248 8.51544C61.5804 7.01271 61.236 5.47868 60.2655 4.91516C59.9524 4.72732 59.6081 4.66471 59.1385 4.66471C58.2932 4.66471 57.2914 4.97777 56.3209 5.25953C55.319 5.5726 54.3172 5.88567 53.4406 5.88567C53.0963 5.88567 52.8145 5.82306 52.5327 5.72914C51.5309 5.35346 50.7482 4.1638 49.9969 2.97414C49.1516 1.69056 48.3063 0.344374 47.1793 0.156534C47.0854 0.125227 46.9914 0.125227 46.8975 0.125227C45.8957 0.125227 44.7687 0.970509 43.6729 1.81579C42.5459 2.69238 41.3562 3.56897 40.2292 3.56897C39.1334 3.56897 37.9438 2.69238 36.7854 1.81579C35.6897 1.00182 34.5627 0.125227 33.5608 0.125227C33.4669 0.125227 33.373 0.125227 33.2791 0.156534C32.152 0.344374 31.2754 1.69056 30.4615 2.97414C29.7101 4.13249 28.9274 5.35346 27.9256 5.72914C27.6439 5.82306 27.3621 5.88567 27.0177 5.88567C26.1411 5.88567 25.1393 5.5726 24.1375 5.25953C23.167 4.97777 22.1652 4.66471 21.3199 4.66471C20.8816 4.66471 20.5059 4.75863 20.1929 4.91516C19.2223 5.47868 18.8467 7.01271 18.5336 8.51544C18.2205 9.89293 17.9075 11.3017 17.0622 11.9905C16.2482 12.6792 14.7768 12.7732 13.368 12.8358C11.834 12.8984 10.2686 12.9923 9.54856 13.8689C8.8285 14.7455 9.01635 16.2795 9.20419 17.8135C9.39203 19.2223 9.54856 20.6625 9.01635 21.6017C8.48413 22.5409 7.13794 23.1044 5.85436 23.6366C4.44556 24.2314 2.97414 24.8576 2.59846 25.922C2.22278 26.9551 2.94283 28.3639 3.63158 29.7101C4.28903 30.9624 4.94647 32.2773 4.75863 33.373C4.57079 34.4061 3.53766 35.4079 2.50454 36.3471C1.3775 37.4116 0.219147 38.476 0.219147 39.6343C0.219147 40.7927 1.3775 41.8884 2.50454 42.9216C3.53766 43.8608 4.57079 44.8626 4.75863 45.8957C4.94647 46.9914 4.28903 48.275 3.63158 49.5586C2.94283 50.9048 2.22278 52.2823 2.59846 53.3467C2.97414 54.4111 4.44556 55.0373 5.85436 55.6321C7.13794 56.1643 8.48413 56.7278 9.01635 57.667C9.54856 58.6062 9.39203 60.0464 9.20419 61.4552C9.01635 62.9579 8.8285 64.5232 9.54856 65.3998C10.2686 66.2764 11.834 66.339 13.368 66.4329C14.7768 66.4955 16.2482 66.5895 17.0622 67.2782C17.8762 67.967 18.2205 69.3758 18.5336 70.7533C18.878 72.256 19.2223 73.79 20.1929 74.3535C20.5059 74.5414 20.8503 74.604 21.3199 74.604C22.1652 74.604 23.167 74.2909 24.1375 74.0092C25.1393 73.6961 26.1411 73.383 27.0177 73.383C27.3621 73.383 27.6439 73.4456 27.9256 73.5396C28.9274 73.9152 29.7101 75.1049 30.4615 76.2946C31.3068 77.5781 32.152 78.9243 33.2791 79.1122C33.373 79.1435 33.4669 79.1435 33.5608 79.1435C34.5627 79.1435 35.6897 78.2982 36.7854 77.4529C37.9438 76.6076 39.1334 75.6997 40.2292 75.6997Z" fill="#262262"></path><path d="M39.7909 70.9724C57.1676 70.9724 71.2542 56.8858 71.2542 39.5091C71.2542 22.1324 57.1676 8.04584 39.7909 8.04584C22.4142 8.04584 8.32764 22.1324 8.32764 39.5091C8.32764 56.8858 22.4142 70.9724 39.7909 70.9724Z" fill="white"></path><path d="M39.7907 69.7828C23.1042 69.7828 9.51709 56.1957 9.51709 39.5092C9.51709 22.8227 23.1042 9.23553 39.7907 9.23553C56.4772 9.23553 70.0643 22.8227 70.0643 39.5092C70.0643 56.1957 56.4772 69.7828 39.7907 69.7828ZM39.7907 9.39207C23.1668 9.39207 9.67362 22.9166 9.67362 39.5092C9.67362 56.133 23.1981 69.6263 39.7907 69.6263C56.4146 69.6263 69.9078 56.1017 69.9078 39.5092C69.9078 22.8853 56.3833 9.39207 39.7907 9.39207Z" fill="#262262"></path><path d="M39.6973 59.3263C34.2812 59.3263 29.2095 57.2287 25.3901 53.4093C21.5707 49.5899 19.4731 44.4869 19.4731 39.1021C19.4731 33.6861 21.5707 28.6144 25.3901 24.7949C29.2095 20.9755 34.3125 18.878 39.6973 18.878C45.1134 18.878 50.1851 20.9755 54.0045 24.7949C57.8239 28.6144 59.9215 33.7174 59.9215 39.1021C59.9215 44.5182 57.8239 49.5899 54.0045 53.4093C50.2164 57.2287 45.1134 59.3263 39.6973 59.3263ZM39.6973 19.0658C28.646 19.0658 19.661 28.0508 19.661 39.1021C19.661 50.1534 28.646 59.1385 39.6973 59.1385C50.7486 59.1385 59.7336 50.1534 59.7336 39.1021C59.7336 28.0508 50.7486 19.0658 39.6973 19.0658Z" fill="#262262"></path><path d="M6.51172 38.8204L70.0331 25.2646L73.0073 40.3231L9.83023 53.6598L6.51172 38.8204Z" fill="#FE0467"></path><path d="M9.67361 53.8789L6.29248 38.6638L6.48032 38.6325L70.1896 25.0454L73.2263 40.4796L73.0385 40.5109L9.67361 53.8789ZM6.76208 38.9456L9.98668 53.4093L72.788 40.1353L69.9078 25.4524L6.76208 38.9456Z" fill="white"></path><path d="M70.5337 27.7378L74.9792 26.4856L73.4139 35.4393L78.016 42.452L71.7547 43.8295L73.0069 40.3231L70.5337 27.7378Z" fill="#FE0467"></path><path d="M71.4733 44.08L72.7882 40.2918L70.2837 27.6126L75.1989 26.2351L73.5709 35.408L78.2982 42.5772L71.4733 44.08ZM70.7533 27.8944L73.1952 40.3545L72.0682 43.5791L77.7034 42.3268L73.1952 35.4706L74.7293 26.7673L70.7533 27.8944Z" fill="white"></path><path d="M7.10649 41.1371L2.50439 41.7632L7.51347 49.3395L6.10467 57.6044L12.366 56.3835L9.86148 53.6598L7.10649 41.1371Z" fill="#FE0467"></path><path d="M5.8543 57.8549L7.32571 49.3707L2.19141 41.638L7.2631 40.9492L10.0494 53.5971L12.7731 56.54L5.8543 57.8549ZM2.81754 41.9197L7.7014 49.2768L6.29259 57.354L11.9591 56.2582L9.61111 53.7537L6.95003 41.3562L2.81754 41.9197Z" fill="white"></path><path d="M34.4054 22.9792L36.5656 23.5427L38.2561 22.1026L38.3814 24.3253L40.2911 25.4837L38.2248 26.2977L37.6926 28.4578L36.2838 26.736L34.061 26.9238L35.282 25.0454L34.4054 22.9792ZM39.6336 25.4211L38.0996 24.4819L38.0057 22.6974L36.6282 23.8557L34.9063 23.3861L35.5951 25.0454L34.6246 26.5481L36.409 26.3916L37.5361 27.8004L37.9431 26.0472L39.6336 25.4211Z" fill="#262262"></path><path d="M34.3433 26.6734L36.3156 26.5168L37.5679 28.0509L38.0375 26.1412L39.8846 25.4211L38.194 24.388L38.0688 22.4156L36.566 23.6992L34.6563 23.1983L35.4077 25.0141L34.3433 26.6734Z" fill="#262262"></path><path d="M28.7705 29.4909L30.5863 29.3344L31.7133 30.7432L32.1203 28.99L33.8109 28.3326L32.2769 27.3934L32.1829 25.6089L30.8054 26.7672L29.0523 26.2976L29.7723 27.9882L28.7705 29.4909Z" fill="#262262"></path><path d="M41.1055 26.6734L42.9213 26.5481L44.0483 27.9256L44.4866 26.1725L46.1459 25.5463L44.6118 24.5758L44.5179 22.7913L43.1404 23.9497L41.4185 23.5114L42.1073 25.1706L41.1055 26.6734Z" fill="#262262"></path><path d="M45.1757 55.4442L43.0155 54.8807L41.325 56.3208L41.1998 54.098L39.29 52.9397L41.3563 52.1257L41.8885 49.9655L43.2973 51.6874L45.5201 51.4995L44.2991 53.3779L45.1757 55.4442ZM39.9475 53.0023L41.4815 53.9415L41.5754 55.726L42.9529 54.5676L44.6748 55.0372L43.986 53.3779L44.9566 51.8752L43.1721 52.0318L42.045 50.623L41.638 52.3761L39.9475 53.0023Z" fill="#262262"></path><path d="M45.0812 51.8126L43.1401 51.9691L41.8879 50.4351L41.4496 52.3448L39.6338 53.0336L41.293 54.0667L41.387 56.0077L42.8897 54.7555L44.7681 55.2564L44.0167 53.4406L45.0812 51.8126Z" fill="#262262"></path><path d="M51.4364 48.6193L49.6206 48.7758L48.4935 47.367L48.0553 49.1202L46.396 49.7777L47.93 50.7169L48.0239 52.5326L49.4014 51.343L51.1546 51.8126L50.4346 50.1533L51.4364 48.6193Z" fill="#262262"></path><path d="M37.8495 51.4369L36.0337 51.5935L34.9066 50.1847L34.4683 51.9378L32.8091 52.5953L34.3431 53.5345L34.437 55.3503L35.8145 54.1606L37.5364 54.6302L36.8477 52.971L37.8495 51.4369Z" fill="#262262"></path><path d="M12.2408 31.3067C13.8062 31.2128 14.5575 31.2128 16.0603 31.3067C15.0898 30.0545 14.6202 29.3657 13.7436 27.9882C14.2132 27.0803 14.4636 26.642 14.9958 25.7968C16.3733 26.8299 17.7508 27.8317 19.1283 28.8648C18.784 29.397 18.6274 29.6788 18.3144 30.2423C17.9074 29.9919 17.7195 29.8666 17.3125 29.5849C16.5299 28.99 16.1229 28.7083 15.3402 28.1135C16.2168 29.5536 16.6551 30.2423 17.6569 31.5572C17.4691 31.9329 17.3752 32.152 17.2186 32.559C15.6533 32.4964 14.8706 32.5277 13.274 32.6842C14.1819 32.9973 14.6515 33.1538 15.5594 33.4982C15.9977 33.6861 16.2168 33.78 16.6551 33.9678C16.4046 34.594 16.3107 34.9383 16.0916 35.5958C14.5262 35.0322 12.9296 34.4374 11.3643 33.8739C11.6773 32.8095 11.8652 32.3086 12.2408 31.3067Z" fill="#262262"></path><path d="M21.5076 21.946C21.758 22.2591 21.9459 22.5722 22.0398 22.9166C22.1337 23.2609 22.1963 23.6053 22.165 23.9497C22.1337 24.2941 22.0711 24.6384 21.9145 24.9828C21.758 25.3272 21.5702 25.6402 21.3197 25.9533C21.0693 26.2664 20.7875 26.5168 20.4744 26.7047C20.1927 26.8925 19.8796 27.049 19.5665 27.1117C19.2535 27.1743 18.9404 27.1743 18.596 27.1117C18.283 27.049 17.9386 26.8925 17.6255 26.6421C17.5629 26.5794 17.5316 26.5794 17.469 26.5168C17.1559 26.2664 16.9368 25.9846 16.7802 25.6716C16.6237 25.3585 16.5298 24.9828 16.5298 24.6071C16.5298 24.2314 16.6237 23.8245 16.7802 23.4175C16.9368 23.0105 17.1872 22.6035 17.5003 22.2278C17.8134 21.8521 18.1577 21.5704 18.5021 21.3512C18.8465 21.1321 19.1909 21.0068 19.5352 20.9755C19.8796 20.9442 20.224 20.9755 20.537 21.1321C20.8501 21.2573 21.1319 21.4764 21.3823 21.7895C21.4136 21.8521 21.4449 21.8834 21.5076 21.946ZM20.1927 23.0105C19.8483 22.6348 19.5039 22.4156 19.1596 22.4156C18.8152 22.4156 18.5021 22.5722 18.189 22.9166C17.876 23.2922 17.7507 23.6679 17.8134 24.0123C17.876 24.388 18.0951 24.7323 18.4708 25.0767C18.5334 25.1393 18.5647 25.1706 18.6273 25.2333C19.003 25.5776 19.3787 25.7342 19.6918 25.7655C20.0361 25.7655 20.3179 25.6089 20.5997 25.2959C20.8501 24.9828 20.9753 24.6697 20.9127 24.2941C20.8814 23.9184 20.6623 23.574 20.3179 23.1983C20.2866 23.1044 20.2553 23.0731 20.1927 23.0105Z" fill="#262262"></path><path d="M27.7374 20.3181C27.2365 20.5999 26.986 20.7564 26.5164 21.1008C25.1389 20.4434 24.4189 20.1616 22.9162 19.692C23.6675 20.7564 24.0432 21.32 24.7946 22.3844C24.325 22.7601 24.1058 22.9479 23.6675 23.3549C22.5718 21.9774 21.5074 20.5999 20.4116 19.2224C20.9438 18.7528 21.1943 18.5023 21.7578 18.0641C23.3231 18.471 24.0745 18.7528 25.4833 19.3789C24.8259 18.2519 24.4815 17.6571 23.7928 16.53C24.3563 16.1543 24.6693 15.9665 25.2642 15.5908C26.1094 17.1875 26.9234 18.7528 27.7374 20.3181Z" fill="#262262"></path><path d="M31.1813 16.1856C30.2734 16.53 29.8351 16.7178 28.9272 17.1248C29.1151 17.5944 29.209 17.8448 29.4282 18.3144C30.43 17.8448 30.9309 17.6257 31.964 17.2813C32.0892 17.657 32.1518 17.8448 32.2458 18.2205C30.7117 18.7527 29.9604 19.0971 28.5203 19.8798C27.7689 18.2831 26.9862 16.6552 26.2349 15.0585C27.7063 14.3072 29.1464 13.6497 30.7117 13.0549C30.837 13.4306 30.8996 13.6184 30.9935 14.0254C29.8351 14.4324 29.2716 14.6515 28.1446 15.1838C28.3324 15.5907 28.395 15.8099 28.5829 16.2169C29.4908 15.7786 29.9604 15.5907 30.8996 15.2464C30.9935 15.6221 31.0561 15.8099 31.1813 16.1856Z" fill="#262262"></path><path d="M34.5938 14.4637C34.8755 13.4306 35.0321 12.9297 35.4077 11.8966C36.1278 11.7713 36.5035 11.7087 37.2235 11.6148C36.4722 13.0862 36.1278 13.8376 35.5643 15.3716C35.6895 16.123 35.7521 16.53 35.8773 17.2813C35.3138 17.4066 35.0321 17.4692 34.4685 17.5944C34.312 16.843 34.2181 16.4674 34.0302 15.716C32.9345 14.5576 32.371 14.0254 31.0874 12.9923C31.7762 12.7419 32.1205 12.6479 32.8406 12.4601C33.5919 13.2428 33.9363 13.6497 34.5938 14.4637Z" fill="#262262"></path><path d="M39.9156 16.843C39.8843 15.0272 39.8843 13.2428 39.853 11.427C40.8548 11.427 41.3558 11.427 42.3889 11.5209C42.8272 11.5522 43.2029 11.6148 43.5472 11.74C43.8916 11.834 44.1734 11.9592 44.3925 12.1157C44.6117 12.2723 44.7682 12.4601 44.8621 12.6479C44.956 12.8671 44.9873 13.0862 44.956 13.3367C44.9247 13.4619 44.8934 13.5871 44.8621 13.6811C44.7995 13.775 44.7369 13.9002 44.643 13.9628C44.549 14.0567 44.4551 14.1194 44.3299 14.182C44.2047 14.2446 44.0481 14.2759 43.8916 14.3072C44.0794 14.3698 44.236 14.4637 44.3612 14.5576C44.4864 14.6516 44.5803 14.7768 44.643 14.8707C44.7056 14.9959 44.7369 15.1212 44.7682 15.2464C44.7995 15.3716 44.7995 15.4968 44.7682 15.6221C44.6743 16.1543 44.4238 16.4987 44.0168 16.7178C43.6098 16.937 43.0463 16.9683 42.3263 16.9057C41.3244 16.8743 40.8548 16.843 39.9156 16.843ZM41.4497 13.7437C41.794 13.7437 41.9506 13.775 42.2636 13.8063C42.608 13.8376 42.8585 13.8063 43.015 13.7124C43.1715 13.6184 43.2655 13.4932 43.2655 13.3054C43.2968 13.0862 43.2342 12.8984 43.0776 12.7732C42.9211 12.6479 42.6706 12.5853 42.295 12.554C41.9819 12.5227 41.8254 12.5227 41.481 12.4914C41.481 12.9923 41.481 13.2428 41.4497 13.7437ZM41.4184 14.589C41.3871 15.1212 41.3871 15.3716 41.3558 15.8725C41.7314 15.9038 41.9193 15.9038 42.3263 15.9351C42.4828 15.9351 42.608 15.9351 42.7019 15.9351C42.7959 15.9038 42.8898 15.8725 42.9837 15.8412C43.0463 15.7786 43.1089 15.7473 43.1402 15.6534C43.1715 15.5908 43.2028 15.4968 43.2028 15.4342C43.2028 15.3403 43.2028 15.2464 43.2028 15.1525C43.1715 15.0586 43.1402 14.9959 43.0776 14.9333C43.015 14.8707 42.9524 14.8081 42.8272 14.7768C42.7332 14.7455 42.608 14.7142 42.4515 14.6829C42.0758 14.6203 41.8567 14.589 41.4184 14.589Z" fill="#262262"></path><path d="M48.8071 17.4066C48.0245 17.1248 47.6488 16.9996 46.8348 16.7804C46.6157 17.1248 46.4904 17.3127 46.2713 17.657C45.6765 17.5005 45.3634 17.4379 44.7686 17.3127C45.8017 15.6534 46.96 14.0881 48.2123 12.6166C48.8384 12.8045 49.1515 12.8984 49.7776 13.1175C50.0907 15.0899 50.2472 17.0935 50.2785 19.0971C49.715 18.8154 49.402 18.6901 48.8384 18.471C48.8384 18.0327 48.8071 17.8136 48.8071 17.4066ZM47.4296 15.8725C47.9618 16.0291 48.2123 16.123 48.7445 16.3108C48.7132 15.4969 48.6506 15.0899 48.588 14.2759C48.1184 14.9333 47.8679 15.2464 47.4296 15.8725Z" fill="#262262"></path><path d="M55.8826 20.4433C55.7261 20.6625 55.5069 20.819 55.2878 20.9442C55.0686 21.0694 54.8182 21.1008 54.5364 21.1008C54.2546 21.1008 53.9729 21.0381 53.6598 20.9442C53.3467 20.8503 53.0337 20.6938 52.7206 20.4746C52.3762 20.2555 52.0632 20.005 51.844 19.7546C51.5936 19.4728 51.437 19.191 51.3118 18.878C51.1866 18.5649 51.1553 18.2518 51.1553 17.8762C51.1553 17.5318 51.2492 17.1561 51.4057 16.7804C51.437 16.6865 51.4683 16.6239 51.4996 16.4987C51.6562 16.123 51.844 15.8099 52.0945 15.5908C52.3449 15.3403 52.6267 15.1838 52.9711 15.1212C53.2841 15.0272 53.6598 15.0272 54.0355 15.1212C54.4112 15.1838 54.8182 15.3716 55.2252 15.6221C55.6321 15.8725 55.9765 16.1543 56.2583 16.4674C56.54 16.7491 56.7279 17.0622 56.8531 17.3752C56.9783 17.6883 57.0409 17.9701 57.0096 18.2518C57.0096 18.5336 56.947 18.8154 56.8218 19.0658C56.2583 18.6275 55.9765 18.4397 55.413 18.0327C55.4756 17.9075 55.5382 17.7822 55.5382 17.657C55.5695 17.5318 55.5382 17.4066 55.4756 17.2813C55.413 17.1561 55.3504 17.0309 55.2252 16.9056C55.0999 16.7804 54.9434 16.6552 54.7555 16.53C54.5677 16.4047 54.4112 16.3421 54.2233 16.3108C54.0668 16.2795 53.9103 16.3108 53.7537 16.3734C53.5972 16.436 53.472 16.53 53.3467 16.7178C53.2215 16.8743 53.0963 17.0935 52.9711 17.3439C52.9085 17.4379 52.9084 17.5005 52.8458 17.6257C52.7206 17.8762 52.6267 18.0953 52.5954 18.3144C52.5328 18.5023 52.5328 18.6901 52.5641 18.8467C52.5954 19.0032 52.658 19.1597 52.7519 19.285C52.8458 19.4102 53.0024 19.5354 53.1902 19.6293C53.5033 19.8172 53.7537 19.9111 54.0042 19.9111C54.2233 19.9111 54.4425 19.7546 54.599 19.5041C55.0999 19.8485 55.3817 20.0363 55.8826 20.4433Z" fill="#262262"></path><path d="M58.3871 22.4157C58.0427 22.3844 57.8549 22.3844 57.5105 22.3844C57.1662 22.8227 57.0096 23.0418 56.6652 23.4801C56.1956 23.0418 55.9452 22.8227 55.4756 22.447C56.4774 21.0069 57.4792 19.5668 58.481 18.1266C59.0759 18.5962 59.3576 18.8467 59.9211 19.3789C59.3576 20.099 59.0759 20.4747 58.5123 21.1947C58.8567 21.1634 59.0446 21.1321 59.3889 21.1008C60.2655 21.0382 60.7351 21.0382 61.643 21.0695C62.3005 21.7895 62.6135 22.1652 63.2397 22.9479C61.8622 22.6974 61.1734 22.6035 59.8585 22.5409C59.7959 24.1375 59.702 24.9202 59.4515 26.4542C58.9506 25.8281 58.7002 25.515 58.168 24.9515C58.2932 23.9497 58.3558 23.4488 58.3871 22.4157Z" fill="#262262"></path><path d="M21.2262 59.9212C21.101 59.9212 20.9445 59.8899 20.7253 59.8586C20.5375 59.8273 20.287 59.7333 20.0366 59.6394C19.7861 59.5455 19.5044 59.389 19.1913 59.2011C18.8782 59.0133 18.5652 58.7628 18.2208 58.4498C17.8138 58.0741 17.4694 57.6671 17.2503 57.2601C16.9998 56.8531 16.8746 56.4461 16.812 56.0705C16.7494 55.6948 16.7807 55.3191 16.9372 54.9747C17.0624 54.6303 17.2816 54.3173 17.5946 54.0668C17.6886 54.0042 17.7199 53.9416 17.8138 53.879C18.1269 53.5972 18.4712 53.4407 18.8156 53.3155C19.16 53.2215 19.5044 53.1902 19.8487 53.2529C20.1931 53.3155 20.5375 53.4094 20.8819 53.5972C21.2262 53.7851 21.5393 54.0042 21.8524 54.286C22.1967 54.599 22.4785 54.9121 22.6663 55.1939C22.8542 55.4756 23.0107 55.7574 23.0733 56.0078C23.1672 56.2896 23.1672 56.5401 23.1359 56.7905C23.1046 57.041 23.0107 57.2914 22.8855 57.5419C22.3533 57.1349 22.0715 56.947 21.5706 56.5088C21.6332 56.3835 21.6645 56.2583 21.6958 56.1644C21.7271 56.0392 21.7271 55.9452 21.6958 55.82C21.6645 55.6948 21.6019 55.5696 21.5393 55.4756C21.4454 55.3504 21.3515 55.2252 21.1949 55.0999C21.0384 54.9747 20.8819 54.8495 20.7253 54.7869C20.5688 54.7243 20.3809 54.693 20.1931 54.693C20.0053 54.693 19.8174 54.7556 19.6296 54.8495C19.4417 54.9434 19.2539 55.0999 19.0661 55.2878C18.9721 55.3817 18.9408 55.413 18.8469 55.5069C18.4712 55.8826 18.2834 56.2583 18.2834 56.634C18.2834 57.0097 18.5025 57.4167 18.9408 57.8236C19.0661 57.9176 19.16 58.0115 19.2539 58.0741C19.3478 58.1367 19.4417 58.1993 19.5357 58.2306C19.6296 58.2619 19.6922 58.2932 19.7548 58.3245C19.8174 58.3559 19.88 58.3559 19.9113 58.3559C20.1305 58.1054 20.2244 57.9802 20.4436 57.7297C20.0366 57.3853 19.8487 57.2288 19.473 56.8844C19.7235 56.634 19.8174 56.4774 20.0679 56.227C20.9758 57.0723 21.4454 57.448 22.4159 58.168C22.0089 58.8568 21.7584 59.2011 21.2262 59.9212Z" fill="#262262"></path><path d="M29.272 59.702C28.7398 60.9856 28.4893 61.643 27.9571 62.9579C27.8319 63.2397 27.6753 63.4901 27.4562 63.6467C27.237 63.8032 26.9553 63.9284 26.6735 63.9597C26.3605 63.9911 26.0161 63.9911 25.6404 63.8971C25.2647 63.8032 24.8577 63.6467 24.4507 63.4275C24.0438 63.2084 23.6994 62.9579 23.3863 62.6762C23.1046 62.3944 22.8854 62.1126 22.7289 61.8309C22.5723 61.5491 22.5097 61.2674 22.541 60.9856C22.541 60.7038 22.635 60.4221 22.8228 60.1716C23.6055 59.0133 24.0124 58.4185 24.7951 57.2601C25.3273 57.6358 25.6091 57.7923 26.1413 58.1054C25.4213 59.3263 25.0769 59.9212 24.3568 61.1421C24.2003 61.4239 24.169 61.6744 24.2629 61.9248C24.3568 62.144 24.576 62.3631 24.9203 62.5509C25.2647 62.7388 25.5465 62.8014 25.7969 62.7388C26.0474 62.7075 26.2352 62.5196 26.3605 62.2066C26.9866 60.9543 27.2683 60.2969 27.8945 59.0446C28.3954 59.3263 28.6772 59.4516 29.272 59.702Z" fill="#262262"></path><path d="M32.6218 65.2746C31.6513 65.0868 31.1817 64.9615 30.2425 64.6798C29.9607 65.0241 29.8042 65.1807 29.5224 65.4937C28.7711 65.2433 28.3954 65.1181 27.644 64.8363C29.1468 63.4901 30.5556 62.1439 31.8391 60.5786C32.4027 60.7351 32.6844 60.7977 33.2166 60.923C33.5923 62.8953 34.1558 64.7737 34.8133 66.6521C34.0306 66.5582 33.6236 66.4956 32.8723 66.339C32.747 65.932 32.7157 65.7129 32.6218 65.2746ZM30.9313 63.8345C31.5261 63.991 31.8391 64.0849 32.434 64.2102C32.3088 63.4275 32.2461 63.0205 32.1522 62.2378C31.6826 62.8953 31.4322 63.2084 30.9313 63.8345Z" fill="#262262"></path><path d="M38.2259 65.0241C37.8502 65.0241 37.6623 65.0241 37.2867 64.9928C37.2554 65.7442 37.224 66.1199 37.1927 66.8712C36.4727 66.8399 36.097 66.8086 35.377 66.7147C35.5648 64.9302 35.7839 63.1457 35.9718 61.3925C36.9423 61.4865 37.4432 61.5178 38.445 61.5491C38.8207 61.5491 39.1338 61.5804 39.4155 61.643C39.6973 61.7056 39.979 61.7995 40.1982 61.9248C40.4173 62.05 40.5739 62.2065 40.7304 62.3944C40.8556 62.5822 40.9496 62.8013 40.9496 63.0831C40.9809 63.3023 40.9496 63.4588 40.9182 63.6466C40.8869 63.8032 40.793 63.9597 40.6991 64.0849C40.6052 64.2102 40.48 64.3354 40.3234 64.4293C40.1669 64.5232 40.0104 64.6171 39.8225 64.6798C40.4486 65.525 40.7617 65.932 41.4818 66.746C41.4818 66.7773 41.4818 66.7773 41.4818 66.8086C40.6991 66.8712 40.3234 66.9025 39.5094 66.9338C38.9772 66.1512 38.7268 65.7755 38.2259 65.0241ZM37.3493 63.991C37.7563 64.0223 37.9754 64.0223 38.4137 64.0223C38.7268 64.0223 38.9772 63.9597 39.1338 63.8345C39.2903 63.7092 39.3529 63.5214 39.3529 63.3023C39.3529 63.0831 39.259 62.8953 39.1025 62.77C38.9459 62.6448 38.7268 62.5822 38.4137 62.5822C38.0067 62.5822 37.8189 62.5822 37.4119 62.5509C37.3806 63.1144 37.3806 63.3962 37.3493 63.991Z" fill="#262262"></path><path d="M46.3032 64.9616C45.364 65.212 44.8944 65.3059 43.9239 65.4625C43.83 65.9008 43.7674 66.0886 43.6734 66.5269C42.8908 66.6521 42.5151 66.7147 41.7324 66.7773C42.4212 64.9302 43.0473 63.0518 43.4856 61.1108C44.0491 61.0169 44.3309 60.9543 44.8631 60.7978C46.0841 62.3944 47.4302 63.8032 48.8391 65.212C48.0877 65.4625 47.712 65.5877 46.9606 65.8068C46.7102 65.4625 46.585 65.3059 46.3032 64.9616ZM44.1743 64.398C44.7692 64.2728 45.0822 64.2102 45.6771 64.085C45.2075 63.4275 44.9883 63.1145 44.55 62.4257C44.3935 63.2397 44.3309 63.6154 44.1743 64.398Z" fill="#262262"></path><path d="M55.1001 62.2692C54.474 62.6449 54.1609 62.8327 53.5035 63.1771C52.2199 62.6449 50.9363 62.0187 49.7466 61.2987C50.2789 62.5196 50.5606 63.1458 51.0928 64.3667C50.4041 64.6485 50.091 64.805 49.4023 65.0555C48.7761 63.3649 48.1813 61.7057 47.5552 60.0151C48.1187 59.796 48.4005 59.702 48.964 59.4516C50.091 60.2029 51.3433 60.8604 52.5643 61.4239C51.9381 60.2656 51.5937 59.6707 50.9676 58.4811C51.4998 58.1993 51.7503 58.0428 52.2825 57.7297C53.1904 59.2324 54.1609 60.7352 55.1001 62.2692Z" fill="#262262"></path><path d="M57.5107 54.7555C56.9472 55.3191 56.6655 55.6008 56.0393 56.133C57.0098 57.2288 57.949 58.3245 58.9196 59.4203C58.356 59.9212 58.0743 60.1403 57.4794 60.6099C56.6029 59.4516 55.695 58.2932 54.8184 57.1349C54.1922 57.6045 53.8792 57.8236 53.2217 58.2619C53.0026 57.9175 52.8774 57.761 52.6582 57.4166C54.1609 56.4461 55.5384 55.3191 56.7907 54.0355C57.1038 54.3486 57.229 54.4738 57.5107 54.7555Z" fill="#262262"></path><path d="M62.3637 51.7814C61.7376 52.7207 61.3932 53.1903 60.7044 54.0355C61.1114 54.3486 61.2993 54.5364 61.7062 54.8495C62.5828 53.7851 62.9898 53.2216 63.7412 52.0319C64.0856 52.2511 64.2421 52.345 64.5865 52.5641C63.616 54.1295 62.4576 55.5696 61.2053 56.9158C59.8905 55.6948 58.5756 54.4738 57.292 53.2529C58.3564 52.1258 59.2017 50.9049 60.0783 49.6526C60.4227 49.8717 60.5792 49.9657 60.9236 50.1848C60.2348 51.2492 59.8905 51.7501 59.1078 52.6893C59.4522 52.9711 59.64 53.1276 59.9844 53.4094C60.6731 52.5641 60.9862 52.1258 61.6123 51.2179C61.8941 51.4684 62.0506 51.5623 62.3637 51.7814Z" fill="#262262"></path><path d="M65.1498 46.0836C64.7115 47.2106 64.4611 47.7428 63.9288 48.776C64.3671 49.0264 64.6176 49.1203 65.0559 49.3708C65.7133 48.0872 66.0264 47.4298 66.5273 46.021C66.903 46.1462 67.0908 46.2401 67.4665 46.3653C66.8091 48.1811 65.9638 49.9343 64.962 51.5936C63.4279 50.6544 61.8939 49.7465 60.3599 48.8073C61.1425 47.3672 61.8 46.021 62.4261 44.4869C62.8018 44.6122 62.9896 44.7061 63.3653 44.8313C62.8957 46.0836 62.6453 46.6784 62.0504 47.8055C62.4574 48.0246 62.6453 48.1185 63.0522 48.3377C63.5845 47.3359 63.8036 46.8036 64.2419 45.7392C64.6176 45.8644 64.8054 45.9584 65.1498 46.0836Z" fill="#262262"></path><path d="M23.574 48.4942L21.1321 48.9951L19.5668 41.2623L17.3127 42.452L16.937 40.6049L21.1947 38.069L21.4139 38.0377L23.574 48.4942Z" fill="white"></path><path d="M31.5572 42.6085L32.6216 42.3893L32.9973 44.2677L31.9641 44.4869L32.4024 46.7097L29.9918 47.2106L29.5535 44.9878L25.515 45.8018L25.0767 44.3617L27.8943 36.7541V36.7228L30.3049 36.2219L31.5572 42.6085ZM27.2681 43.4851L29.1465 43.1094L28.4891 39.8848L28.3952 40.1665L27.2681 43.4851Z" fill="white"></path><path d="M37.3802 45.1443L35.314 35.1888L38.5073 34.5313C39.196 34.4061 39.8221 34.3748 40.4483 34.5C41.0744 34.6253 41.6066 34.8444 42.1075 35.1888C42.6084 35.5332 43.0154 35.9715 43.3598 36.5037C43.7042 37.0359 43.9546 37.662 44.1112 38.3508L44.2051 38.7578C44.3616 39.4778 44.3616 40.1353 44.2677 40.7614C44.1738 41.3875 43.9546 41.951 43.6416 42.452C43.3285 42.9529 42.8902 43.3912 42.3893 43.7355C41.8884 44.0799 41.2936 44.3304 40.6361 44.4556L37.3802 45.1443ZM38.1003 36.5663L39.3838 42.8276L40.2291 42.6398C40.9179 42.4833 41.3875 42.1389 41.6692 41.5754C41.951 41.0118 41.9823 40.2292 41.7632 39.29L41.6692 38.8517C41.4814 37.8812 41.137 37.1924 40.6674 36.7854C40.1978 36.3784 39.603 36.2532 38.9142 36.3784L38.1003 36.5663Z" fill="white"></path><path d="M51.531 40.2605L48.2438 40.9492L48.0559 42.9215L45.4888 43.4538L47.0854 32.7469L49.3395 32.2773L55.0686 41.4501L52.5015 41.9823L51.531 40.2605ZM48.4316 38.9769L50.5605 38.5386L48.776 35.314L48.4316 38.9769Z" fill="white"></path><path d="M57.2601 35.1575L58.1993 30.4615L60.7977 29.9293L58.9193 36.9733L59.6707 40.5422L57.2288 41.0432L56.4774 37.4742L51.9692 31.7764L54.5364 31.2441L57.2601 35.1575Z" fill="white"></path></svg>